<svg id="Layer_1" data-name="Layer 1" xmlns="http://www.w3.org/2000/svg" viewBox="0 0 127.8 119.09"><path d="M414.73,288a38.94,38.94,0,0,1-13.9-.54,19.25,19.25,0,0,0-8.61.19l0-.08a17.94,17.94,0,0,0-8.32,4.7c-5.47,5.53-7.68,12-6.57,19.39.65,4.22,3.53,7.17,8.14,8.31a27.9,27.9,0,0,0,6.6.79c12.76,0,25.29-8.55,29.27-20.94a12.65,12.65,0,0,0,.32-7.24C420.69,289,418.22,287.38,414.73,288Zm2.8,10.55c-4.06,12.66-18.32,20.68-31.13,17.53-3-.75-4.73-2.39-5.13-5-.93-6.1.85-11.33,5.44-16a14.39,14.39,0,0,1,3.18-2.37l0,.05a15.19,15.19,0,0,1,10.08-1.4,42.73,42.73,0,0,0,15.34.58c1.31-.22,2,0,2.42,1.64A8.58,8.58,0,0,1,417.53,298.51ZM429.92,249c-2.51-6.18-6.63-8.55-12.92-7.47a87.5,87.5,0,0,0-21.45,6l-.25.12a91.59,91.59,0,0,0,11.39-16.74c2.63-4.75,1.88-9.21-2.23-13.25s-8.95-5.51-15.11-4.78c-6,.7-11.35,3-16.75,5.57l-.22.11-1.05.86c-.5.42-1,.83-1.48,1.21a44.47,44.47,0,0,0-10,10.48,38.49,38.49,0,0,1,2.94-8.19c1.65-3.16.89-6.12-2.17-8.37a13.31,13.31,0,0,0-7-2.5,28.5,28.5,0,0,0-20.9,7,29.67,29.67,0,0,0-10.26,20.14c-.35,4.91,1.52,8.71,5.35,10.95a21.92,21.92,0,0,0,21,1.24,27.28,27.28,0,0,0,4.31-3l0,0a18.87,18.87,0,0,0,3.7-4.92,16.48,16.48,0,0,0,3,6.15,23.45,23.45,0,0,0,4.89,4.5c.49.36,1,.73,1.44,1.1l.2.16.24.11,1.26.56c1,.44,2,.9,3,1.31a13.44,13.44,0,0,0,5.22,1.05,13,13,0,0,0,3.45-.46,26.12,26.12,0,0,0,4.13-1.41,17.44,17.44,0,0,0-2.69,14.2l-.06-.05a.91.91,0,0,1-.28-.54l-.08-.33a20.22,20.22,0,0,0-6.55-9.51c-.63-1.07-1.88-2.14-8.06-4.32v0a3.42,3.42,0,0,0-.58-.16l-.13-.05v0c-3.11-.57-10.82.36-10.93.37a41.11,41.11,0,0,1-17.62-1c-6.72-2-13-1.57-18.6,1.31-1,.51-2,1.06-2.9,1.6l-1.23.7-.32.18-.23.27c-.7.83-1.46,1.6-2.26,2.42a33.09,33.09,0,0,0-3.78,4.38c-4.47,6.56-5.3,13.3-2.42,20.11a22.94,22.94,0,0,0,7.55,9,40.17,40.17,0,0,1,14.27,20.47,22.37,22.37,0,0,0,5.91,10.08,19.15,19.15,0,0,0,13.44,5.37,25.24,25.24,0,0,0,6.23-.82,29.47,29.47,0,0,0,5-1.92,32.45,32.45,0,0,1,3.36-1.4l.7-.23.38-.62,0,0c6.87-4.81,10.46-11.87,11-21.58a28.65,28.65,0,0,1,3.44-12.09c1.05-1.95,1.93-3.93,2.73-5.78l.11-.24c.6-1.4,1-2.28,1.85-2.82a3.1,3.1,0,0,0,1.37-3.11,1.73,1.73,0,0,1,0-.4,10,10,0,0,0-.33-5.45,12.24,12.24,0,0,1-.4-1.77c1.79,6,4.52,9.83,8.34,11.8a13.69,13.69,0,0,0,6.38,1.46,26.56,26.56,0,0,0,8.84-1.77A74.1,74.1,0,0,0,417.59,278l.21-.13.17-.18.75-.79c.49-.53,1-1.05,1.46-1.52a39.9,39.9,0,0,0,9.74-13.86A16.31,16.31,0,0,0,429.92,249Zm-70.66-27.87A43.06,43.06,0,0,0,355,236.26a14.76,14.76,0,0,1-3.46,8.14h0l-.07.09-.27.31a24.55,24.55,0,0,1-4,2.94,18,18,0,0,1-17.3-1c-2.51-1.46-3.66-3.9-3.43-7.23a25.63,25.63,0,0,1,8.89-17.4,24.6,24.6,0,0,1,16.17-6.1c.61,0,1.23,0,1.85.07a9.33,9.33,0,0,1,4.93,1.74C359.94,219,359.91,219.87,359.26,221.12ZM378.54,279a4.73,4.73,0,0,0-.12,1.47,9.74,9.74,0,0,0-2.9,4.28l-.1.24c-.76,1.76-1.6,3.65-2.58,5.45a32.65,32.65,0,0,0-3.91,13.78c-.46,8.59-3.45,14.51-9.42,18.62l-.22.18a4,4,0,0,0-.29.29c-1.11.4-2.16.88-3.18,1.35a24.53,24.53,0,0,1-4.34,1.68c-6.41,1.62-11.63.44-15.92-3.56a18.44,18.44,0,0,1-4.84-8.28A44.16,44.16,0,0,0,315,291.92a18.9,18.9,0,0,1-6.25-7.42c-2.31-5.48-1.63-10.79,2.08-16.23a29.45,29.45,0,0,1,3.33-3.83c.74-.75,1.49-1.53,2.21-2.36l1-.54c.94-.54,1.82-1.05,2.73-1.51,4.74-2.43,9.85-2.77,15.66-1A45.12,45.12,0,0,0,355,260.16a59.36,59.36,0,0,1,9.33-.47c5.32,1.86,6.24,2.64,6.35,2.75a2.51,2.51,0,0,0,.71.89,16.28,16.28,0,0,1,5.41,7.65,4.88,4.88,0,0,0,.89,2,13.15,13.15,0,0,0,.53,2.63A6.24,6.24,0,0,1,378.54,279Zm.09-24.89a9.37,9.37,0,0,1-6.13-.42c-1-.39-2-.83-2.92-1.26l-1.06-.47-1.31-1a19.66,19.66,0,0,1-4.11-3.71c-3.1-4.12-3.39-8.19-.87-12.41a40.18,40.18,0,0,1,10.07-11.05c.54-.43,1.06-.87,1.59-1.3l.64-.53c5-2.35,10-4.5,15.28-5.12,4.95-.58,8.72.59,11.84,3.66,2.86,2.82,3.31,5.27,1.54,8.46-4.8,8.7-9.24,14.77-14.36,19.67A23.65,23.65,0,0,1,378.63,254.14Zm47.6,5.86a35.79,35.79,0,0,1-8.8,12.51c-.56.55-1.1,1.13-1.64,1.7l-.54.58a70.61,70.61,0,0,1-11.41,5.77c-5.14,1.83-9.06,2-12,.49s-5-4.69-6.46-9.81c-.09-.3-.19-.6-.29-.9L385,270c-2.21-10,5.41-15.75,12.17-18.79a83.5,83.5,0,0,1,20.47-5.74c4.46-.77,6.78.59,8.6,5.05A12.27,12.27,0,0,1,426.23,260Z" transform="translate(-303.38 -211.98)"/></svg>